HIERARCHY
ROOT Hips
{
	OFFSET 0.000000 0.000000 0.000000
	CHANNELS 6 Xposition Yposition Zposition Zrotation Yrotation Xrotation 
	JOINT LHipJoint
	{
		OFFSET 0.000000 0.000000 0.000000
		CHANNELS 3 Zrotation Yrotation Xrotation
		JOINT LeftUpLeg
		{
			OFFSET 1.363060 -1.794630 0.839290
			CHANNELS 3 Zrotation Yrotation Xrotation
			JOINT LeftLeg
			{
				OFFSET 2.448110 -6.726130 0.000000
				CHANNELS 3 Zrotation Yrotation Xrotation
				JOINT LeftFoot
				{
					OFFSET 2.562200 -7.039590 0.000000
					CHANNELS 3 Zrotation Yrotation Xrotation
					JOINT LeftToeBase
					{
						OFFSET 0.157640 -0.433110 2.322550
						CHANNELS 3 Zrotation Yrotation Xrotation
						End Site
						{
							OFFSET 0.000000 0.000000 0.000000
						}
					}
				}
			}
		}
	}
	JOINT RHipJoint
	{
		OFFSET 0.000000 0.000000 0.000000
		CHANNELS 3 Zrotation Yrotation Xrotation
		JOINT RightUpLeg
		{
			OFFSET -1.305520 -1.794630 0.839290
			CHANNELS 3 Zrotation Yrotation Xrotation
			JOINT RightLeg
			{
				OFFSET -2.542530 -6.985550 0.000000
				CHANNELS 3 Zrotation Yrotation Xrotation
				JOINT RightFoot
				{
					OFFSET -2.568260 -7.056230 0.000000
					CHANNELS 3 Zrotation Yrotation Xrotation
					JOINT RightToeBase
					{
						OFFSET -0.164730 -0.452590 2.363150
						CHANNELS 3 Zrotation Yrotation Xrotation
						End Site
						{
							OFFSET 0.000000 0.000000 0.000000
						}
					}
				}
			}
		}
	}
	JOINT LowerBack
	{
		OFFSET 0.000000 0.000000 0.000000
		CHANNELS 3 Zrotation Yrotation Xrotation
		JOINT Spine
		{
			OFFSET 0.028270 2.035590 -0.193380
			CHANNELS 3 Zrotation Yrotation Xrotation
			JOINT Spine1
			{
				OFFSET 0.056720 2.048850 -0.042750
				CHANNELS 3 Zrotation Yrotation Xrotation
				JOINT Neck
				{
					OFFSET 0.000000 0.000000 0.000000
					CHANNELS 3 Zrotation Yrotation Xrotation
					JOINT Neck1
					{
						OFFSET -0.054170 1.746240 0.172020
						CHANNELS 3 Zrotation Yrotation Xrotation
						JOINT Head
						{
							OFFSET 0.104070 1.761360 -0.123970
							CHANNELS 3 Zrotation Yrotation Xrotation
							End Site
							{
								OFFSET 0.000000 0.000000 0.000000
							}
						}
					}
				}
				JOINT LeftShoulder
				{
					OFFSET 0.000000 0.000000 0.000000
					CHANNELS 3 Zrotation Yrotation Xrotation
					JOINT LeftArm
					{
						OFFSET 3.362410 1.200890 -0.311210
						CHANNELS 3 Zrotation Yrotation Xrotation
						JOINT LeftForeArm
						{
							OFFSET 4.983000 -0.000000 -0.000000
							CHANNELS 3 Zrotation Yrotation Xrotation
							JOINT LeftHand
							{
								OFFSET 3.483560 -0.000000 -0.000000
								CHANNELS 3 Zrotation Yrotation Xrotation
								JOINT LeftFingerBase
								{
									OFFSET 0.000000 0.000000 0.000000
									CHANNELS 3 Zrotation Yrotation Xrotation
									JOINT LeftHandIndex1
									{
										OFFSET 0.715260 -0.000000 -0.000000
										CHANNELS 3 Zrotation Yrotation Xrotation
										End Site
										{
											OFFSET 0.000000 0.000000 0.000000
										}
									}
								}
								JOINT LThumb
								{
									OFFSET 0.000000 0.000000 0.000000
									CHANNELS 3 Zrotation Yrotation Xrotation
									End Site
									{
										OFFSET 0.000000 0.000000 0.000000
									}
								}
							}
						}
					}
				}
				JOINT RightShoulder
				{
					OFFSET 0.000000 0.000000 0.000000
					CHANNELS 3 Zrotation Yrotation Xrotation
					JOINT RightArm
					{
						OFFSET -3.136600 1.374050 -0.404650
						CHANNELS 3 Zrotation Yrotation Xrotation
						JOINT RightForeArm
						{
							OFFSET -5.241900 -0.000000 -0.000000
							CHANNELS 3 Zrotation Yrotation Xrotation
							JOINT RightHand
							{
								OFFSET -3.444170 -0.000000 -0.000000
								CHANNELS 3 Zrotation Yrotation Xrotation
								JOINT RightFingerBase
								{
									OFFSET 0.000000 0.000000 0.000000
									CHANNELS 3 Zrotation Yrotation Xrotation
									JOINT RightHandIndex1
									{
										OFFSET -0.622530 -0.000000 -0.000000
										CHANNELS 3 Zrotation Yrotation Xrotation
										End Site
										{
											OFFSET 0.000000 0.000000 0.000000
										}
									}
								}
								JOINT RThumb
								{
									OFFSET 0.000000 0.000000 0.000000
									CHANNELS 3 Zrotation Yrotation Xrotation
									End Site
									{
										OFFSET 0.000000 0.000000 0.000000
									}
								}
							}
						}
					}
				}
			}
		}
	}
}
MOTION
Frames: 4
Frame Time: 0.033333
-0.034403 16.419898 -0.034403 -3.241851 -3.396451 4.051858 -2.196606 18.964851 3.547170 -16.183384 -6.303848 -15.013915 -8.566800 -10.317764 -28.291414 5.229925 20.706296 49.858226 0.000000 0.000000 0.000000 -3.184710 -22.016070 -6.089473 32.296880 4.036090 -2.812008 -2.038551 -4.614819 21.089422 -0.602110 11.236857 -28.438859 0.000000 0.000000 0.000000 2.267999 0.785492 5.680510 1.765643 0.531183 13.844633 0.619331 1.695864 -10.107837 5.783975 -0.925731 -9.346448 -2.200474 -0.176643 -1.572849 0.000000 0.000000 0.000000 1.156018 10.919309 8.666634 -69.623221 -4.305083 19.908652 -14.489322 -78.335542 0.411774 2.593432 -15.040729 0.198810 2.656579 -15.035108 0.000000 0.000000 0.000000 0.000000 0.000000 0.000000 0.000000 -6.024465 -10.040219 7.941073 67.980882 5.500254 18.720138 16.139469 77.158865 0.365621 -1.101249 12.609481 0.179990 -1.126643 12.611160 0.000000 0.000000 0.000000 0.000000 0.000000 0.000000 0.000000 
-0.026623 16.448981 0.122463 -2.881434 -3.432382 4.162171 -1.885105 19.020558 3.403733 -17.052055 -6.206404 -14.479760 -8.409418 -10.064175 -27.488877 4.583884 19.737150 47.626345 0.000000 0.000000 0.000000 -2.944085 -22.048985 -5.743132 31.768228 4.863398 -3.640648 -2.825531 -4.910215 22.977960 -0.581508 11.219156 -28.543036 0.000000 0.000000 0.000000 2.069680 0.807699 5.541487 1.574321 0.516222 13.856905 0.644100 1.655544 -10.136336 5.730849 -0.913987 -9.266790 -2.148810 -0.171458 -1.540618 0.000000 0.000000 0.000000 1.141248 10.904019 8.673619 -69.584867 -4.316150 19.935695 -14.495536 -78.326867 0.412560 2.591388 -15.042618 0.199202 2.654493 -15.037021 0.000000 0.000000 0.000000 0.000000 0.000000 0.000000 0.000000 -5.941169 -10.121178 7.918327 67.937723 5.469413 18.741737 16.148961 77.149892 0.366163 -1.098549 12.611601 0.180262 -1.123904 12.613295 0.000000 0.000000 0.000000 0.000000 0.000000 0.000000 0.000000 
-0.016589 16.479884 0.278732 -2.523371 -3.441544 4.280651 -1.603293 19.051962 3.235078 -17.887933 -6.119125 -13.975373 -8.251773 -9.785899 -26.594201 3.979824 18.728205 45.324955 0.000000 0.000000 0.000000 -2.680743 -22.019924 -5.369576 31.159231 5.667556 -4.489334 -3.543377 -5.188101 24.749597 -0.540969 11.123013 -28.528304 0.000000 0.000000 0.000000 1.875776 0.820030 5.394230 1.387185 0.492213 13.866294 0.669562 1.607116 -10.163743 5.677919 -0.902517 -9.186543 -2.098240 -0.166436 -1.508142 0.000000 0.000000 0.000000 1.126179 10.884131 8.681560 -69.546927 -4.328003 19.962399 -14.502324 -78.317902 0.413324 2.589246 -15.044520 0.199582 2.652312 -15.038946 0.000000 0.000000 0.000000 0.000000 0.000000 0.000000 0.000000 -5.858435 -10.205540 7.895455 67.894245 5.437288 18.762812 16.158432 77.141183 0.366690 -1.095899 12.613787 0.180525 -1.121216 12.615496 0.000000 0.000000 0.000000 0.000000 0.000000 0.000000 0.000000 
-0.004350 16.512158 0.434002 -2.171676 -3.425551 4.404320 -1.350766 19.064384 3.045078 -18.686522 -6.043024 -13.504601 -8.097075 -9.483222 -25.613291 3.422769 17.690601 42.975193 0.000000 0.000000 0.000000 -2.402658 -21.935829 -4.976248 30.482698 6.433797 -5.343610 -4.191039 -5.452162 26.398854 -0.483793 10.959523 -28.405828 0.000000 0.000000 0.000000 1.689636 0.822582 5.241857 1.205166 0.459601 13.873702 0.695164 1.551197 -10.190177 5.625034 -0.891311 -9.105735 -2.048725 -0.161571 -1.475524 0.000000 0.000000 0.000000 1.110692 10.860063 8.690316 -69.509385 -4.340592 19.988731 -14.509606 -78.308685 0.414066 2.587030 -15.046435 0.199952 2.650059 -15.040885 0.000000 0.000000 0.000000 0.000000 0.000000 0.000000 0.000000 -5.776432 -10.292929 7.872444 67.850540 5.404104 18.783371 16.167867 77.132731 0.367200 -1.093298 12.616033 0.180781 -1.118580 12.617756 0.000000 0.000000 0.000000 0.000000 0.000000 0.000000 0.000000 
